<svg id="Layer_1" data-name="Layer 1" xmlns="http://www.w3.org/2000/svg" viewBox="0 0 394.33 90"><defs><style>.cls-1{fill:#fff;}</style></defs><path class="cls-1" d="M208.57,153.5h-2.31l9.44-24.69H218Z" transform="translate(-98 -66)"/><path class="cls-1" d="M235.17,151.34H232.7V131h2.47Z" transform="translate(-98 -66)"/><path class="cls-1" d="M254.7,141.46v9.88h-2.47v-9c0-3.43-1.67-4.57-3.8-4.57s-4.78,1.42-4.78,5.37v8.21h-2.47V135.91h2.16l.16,2.41a5.57,5.57,0,0,1,5.18-2.72C252,135.6,254.7,137.48,254.7,141.46Z" transform="translate(-98 -66)"/><path class="cls-1" d="M269.48,150.26a5.8,5.8,0,0,1-4,1.39c-2.29,0-4.26-1.15-4.29-4.14V138h-3.09v-2.13h3.09v-3.7l2.47-.68v4.38h5.7V138h-5.7v9a2.09,2.09,0,0,0,2.31,2.25,3.51,3.51,0,0,0,2.62-1.14Z" transform="translate(-98 -66)"/><path class="cls-1" d="M286.29,135.91v15.43h-2.16L284,149c-1.08,1.85-3.06,2.66-5.52,2.66-3.06,0-5.68-1.58-5.68-5.65V135.91h2.47v9.44c0,3.18,1.42,4.14,3.64,4.14,2.62,0,4.93-1.55,4.93-5.19v-8.39Z" transform="translate(-98 -66)"/><path class="cls-1" d="M291.38,131.1a1.86,1.86,0,1,1,1.85,1.85A1.75,1.75,0,0,1,291.38,131.1Zm3.09,20.24H292V135.91h2.47Z" transform="translate(-98 -66)"/><path class="cls-1" d="M309.62,150.26a5.8,5.8,0,0,1-4,1.39c-2.29,0-4.26-1.15-4.29-4.14V138h-3.09v-2.13h3.09v-3.7l2.47-.68v4.38h5.71V138h-5.71v9a2.09,2.09,0,0,0,2.31,2.25,3.51,3.51,0,0,0,2.62-1.14Z" transform="translate(-98 -66)"/><path class="cls-1" d="M312.46,131.1a1.85,1.85,0,1,1,1.85,1.85A1.75,1.75,0,0,1,312.46,131.1Zm3.08,20.24h-2.47V135.91h2.47Z" transform="translate(-98 -66)"/><path class="cls-1" d="M334.05,135.91l-6.41,15.43h-2.47l-6.42-15.43h2.81l4.87,12.93,5-12.93Z" transform="translate(-98 -66)"/><path class="cls-1" d="M350.38,144.55H338.74c.31,3.12,2.19,4.94,5,4.94,2.26,0,3.8-.81,4.35-2.29l2.07,1.08c-1.17,2.1-3.08,3.37-6.42,3.37-4.66,0-7.46-3-7.46-8s2.62-8,7.28-8c4.47,0,6.91,3.24,6.91,7.22A12.49,12.49,0,0,1,350.38,144.55Zm-11.61-2.19h9.35c-.34-2.84-1.91-4.6-4.53-4.6S339.14,139.46,338.77,142.36Z" transform="translate(-98 -66)"/><path class="cls-1" d="M373.45,142.88h-4.87v8.46h-2.47V131h7.72c4.13,0,6.88,2.29,6.88,6a5.64,5.64,0,0,1-4.51,5.68l5.74,8.73H379Zm-4.87-2.31h5.21c2.9,0,4.32-1.2,4.32-3.64s-1.42-3.64-4.32-3.64h-5.21Z" transform="translate(-98 -66)"/><path class="cls-1" d="M399.59,143.62c0,5-2.81,8-7.47,8s-7.47-3-7.47-8,2.81-8,7.47-8S399.59,138.62,399.59,143.62Zm-12.47,0c0,3.67,1.88,5.9,5,5.9s5-2.23,5-5.9-1.88-5.89-5-5.89S387.12,140,387.12,143.62Z" transform="translate(-98 -66)"/><path class="cls-1" d="M419,143.62c0,5-2.74,8-7,8a5.78,5.78,0,0,1-5.28-3l-.15,2.69h-2.16V128.81h2.47v9.51a5.81,5.81,0,0,1,5.12-2.72C416.22,135.6,419,138.59,419,143.62Zm-2.46,0c0-3.58-1.83-5.86-4.85-5.86s-4.84,2.19-4.84,5.68v.37c0,3.48,1.91,5.68,4.84,5.68S416.5,147.2,416.5,143.62Z" transform="translate(-98 -66)"/><path class="cls-1" d="M437.72,143.62c0,5-2.8,8-7.46,8s-7.47-3-7.47-8,2.81-8,7.47-8S437.72,138.62,437.72,143.62Zm-12.46,0c0,3.67,1.88,5.9,5,5.9s5-2.23,5-5.9-1.88-5.89-5-5.89S425.26,140,425.26,143.62Z" transform="translate(-98 -66)"/><path class="cls-1" d="M451.64,150.26a5.78,5.78,0,0,1-4,1.39c-2.28,0-4.26-1.15-4.29-4.14V138h-3.09v-2.13h3.09v-3.7l2.47-.68v4.38h5.71V138h-5.71v9a2.09,2.09,0,0,0,2.31,2.25,3.49,3.49,0,0,0,2.62-1.14Z" transform="translate(-98 -66)"/><path class="cls-1" d="M454.48,131.1a1.85,1.85,0,1,1,1.85,1.85A1.75,1.75,0,0,1,454.48,131.1Zm3.08,20.24h-2.47V135.91h2.47Z" transform="translate(-98 -66)"/><path class="cls-1" d="M476.17,139.71l-2.35,1.11a4,4,0,0,0-4.1-3.06c-3.09,0-4.94,2.19-4.94,5.86s1.85,5.87,4.94,5.87c2.4,0,3.86-1.15,4.32-3.18l2.28.8a6.54,6.54,0,0,1-6.54,4.54c-4.66,0-7.47-3-7.47-8s2.81-8,7.47-8A6.55,6.55,0,0,1,476.17,139.71Z" transform="translate(-98 -66)"/><path class="cls-1" d="M479.25,148.16l2-1.39c.74,1.88,2.65,2.72,4.87,2.72,2.53,0,3.74-1,3.74-2.29s-1-1.82-4.05-2.37c-4.38-.81-6-2-6-4.6s2.31-4.63,6.08-4.63c3.3,0,5.24,1.17,6.11,3.7l-2.1,1.24a3.76,3.76,0,0,0-4-2.78c-2.07,0-3.61,1.11-3.61,2.25,0,1.33,1,2,4.16,2.53,4.32.71,5.86,2,5.86,4.54s-2.5,4.57-6.44,4.57C483.05,151.65,480.42,150.54,479.25,148.16Z" transform="translate(-98 -66)"/><path class="cls-1" d="M228.78,114.43H218.66l-12.22-42h9.48l8.15,35.06,8.4-35.06h8.4l8.52,35.06,8.15-35.06h9l-12.22,42h-9.86l-5.85-22.91-2-9.92h-.13l-2,9.92Z" transform="translate(-98 -66)"/><path class="cls-1" d="M271.34,73.39c0-3.12,1.78-4.71,5.41-4.71s5.41,1.59,5.41,4.71S280.38,78,276.75,78,271.34,76.51,271.34,73.39Zm9.74,41h-8.72V82.61h8.72Z" transform="translate(-98 -66)"/><path class="cls-1" d="M298.83,104.31c0,3,.76,4.07,3.12,4.07a9.56,9.56,0,0,0,3.75-.7l-.76,6a12.87,12.87,0,0,1-5.92,1.34c-6.17,0-8.91-2.87-8.91-9.49V68.68h8.72Z" transform="translate(-98 -66)"/><path class="cls-1" d="M341.27,68.68v45.75h-7.76l-.38-5.73a11.27,11.27,0,0,1-10.5,6.37c-8.47,0-13.62-6.11-13.62-16.48S314.23,82,322.63,82a10.73,10.73,0,0,1,9.92,5.79V68.68Zm-8.72,31.69V96.68c-.44-5.09-3.11-8-7.31-8-4.65,0-7.45,3.37-7.45,9.86s2.8,9.86,7.45,9.86C329.37,108.38,332.11,105.58,332.55,100.37Z" transform="translate(-98 -66)"/><path class="cls-1" d="M361.06,79.43v3.18h10.05V89.1h-9.67v25.33h-8.72V89.1h-5.53V82.61h5.53V78.8c0-7.19,4.9-10.76,12-10.76a11.48,11.48,0,0,1,6.62,1.66l-1.21,5.79a6.13,6.13,0,0,0-3.63-1C363.09,74.53,361.06,75.93,361.06,79.43Zm14.25-6c0-3.12,1.78-4.71,5.41-4.71s5.41,1.59,5.41,4.71S384.35,78,380.72,78,375.31,76.51,375.31,73.39Zm1,9.22h8.72v31.82h-8.72Z" transform="translate(-98 -66)"/><path class="cls-1" d="M415.65,82.68l-1.08,7.63a7.77,7.77,0,0,0-4-1c-3.82,0-7.63,2.8-7.63,8.59v16.48h-8.72V82.61h7.57l.57,6.24c1.66-4.39,4.9-6.87,9.87-6.87A7.2,7.2,0,0,1,415.65,82.68Z" transform="translate(-98 -66)"/><path class="cls-1" d="M449.82,101.83H427.3c.89,4.58,3.69,6.75,7.95,6.75,3.69,0,6.11-1.4,7-4l7.13,2.61c-2,5.09-6.94,7.83-14.13,7.83-10.56,0-16.54-6.11-16.54-16.55S424.5,82,434.74,82c9.93,0,15.34,6,15.34,16.41A29.43,29.43,0,0,1,449.82,101.83Zm-22.59-6.11h14.83c-.7-4.77-3.37-7.32-7.38-7.32C430.48,88.4,427.93,90.89,427.23,95.72Z" transform="translate(-98 -66)"/><path class="cls-1" d="M98,66v90h90V66Zm45.47,63.71c-1.39,0-2.52-2.15-2.52-4.81s1.13-4.81,2.52-4.81,2.51,2.15,2.51,4.81S144.86,129.71,143.47,129.71Zm27.23-4.8c-1.33,6.16-6,9.81-8.71,11.87a29.5,29.5,0,0,1-15,5.91c7.54-4.77,11.63-12.94,10.54-20.83-1.25-9-9.43-18.43-17.5-17-7.11,1.28-12.13,10.58-11,18.77,1.31,9.3,10.09,13.61,10.85,14-.82.1-12.72,1.27-20.45-8.18-7-8.55-4.77-18.69-4.49-19.86a9.93,9.93,0,0,0,4.7,5.49,9.77,9.77,0,0,0,2.1.8c-2.29-8.33.81-16.15,1.15-17C126.46,90.31,133.2,86,136.42,84a38.63,38.63,0,0,1,20.08-5.72,19.12,19.12,0,0,0-3.92,7.84,19.5,19.5,0,0,0,0,8.61c.81,3.56,2.94,8.27,5.9,10.84a11.58,11.58,0,0,1,1.14-2.78A14.23,14.23,0,0,1,165.9,97a14,14,0,0,0-.79,6.27c.44,3.81,2.39,5.3,4,8.93C169.54,113.2,172,118.91,170.7,124.91Z" transform="translate(-98 -66)"/></svg>