<?xml version="1.0" encoding="utf-8"?>
<!-- Generator: Adobe Illustrator 24.2.0, SVG Export Plug-In . SVG Version: 6.00 Build 0)  -->
<svg version="1.1" id="Layer_1" xmlns="http://www.w3.org/2000/svg" xmlns:xlink="http://www.w3.org/1999/xlink" x="0px" y="0px"
	 viewBox="0 0 444 110" style="enable-background:new 0 0 444 110;" xml:space="preserve">
<style type="text/css">
	.st0{fill:#2C2E30;}
</style>
<g>
	<path class="st0" d="M137.6,97.5h-2.3l9.4-24.7h2.3L137.6,97.5z"/>
	<path class="st0" d="M164.2,95.3h-2.5V75h2.5V95.3z"/>
	<path class="st0" d="M183.7,85.5v9.9h-2.5v-9c0-3.4-1.7-4.6-3.8-4.6c-2.3,0-4.8,1.4-4.8,5.4v8.2h-2.5V79.9h2.2l0.2,2.4
		c1.1-1.9,3.1-2.7,5.2-2.7C181,79.6,183.7,81.5,183.7,85.5z"/>
	<path class="st0" d="M198.5,94.3c-1,0.9-2.3,1.4-4,1.4c-2.3,0-4.3-1.1-4.3-4.1V82h-3.1v-2.1h3.1v-3.7l2.5-0.7v4.4h5.7V82h-5.7v9
		c0,1.5,1,2.3,2.3,2.3c1.1,0,1.9-0.4,2.6-1.1L198.5,94.3z"/>
	<path class="st0" d="M215.3,79.9v15.4h-2.2L213,93c-1.1,1.9-3.1,2.7-5.5,2.7c-3.1,0-5.7-1.6-5.7-5.6V79.9h2.5v9.4
		c0,3.2,1.4,4.1,3.6,4.1c2.6,0,4.9-1.5,4.9-5.2v-8.4H215.3z"/>
	<path class="st0" d="M220.4,75.1c0-1.1,0.7-1.9,1.9-1.9s1.9,0.7,1.9,1.9c0,1.1-0.7,1.9-1.9,1.9S220.4,76.2,220.4,75.1z M223.5,95.3
		H221V79.9h2.5V95.3z"/>
	<path class="st0" d="M238.6,94.3c-1,0.9-2.3,1.4-4,1.4c-2.3,0-4.3-1.1-4.3-4.1V82h-3.1v-2.1h3.1v-3.7l2.5-0.7v4.4h5.7V82h-5.7v9
		c0,1.5,1,2.3,2.3,2.3c1.1,0,1.9-0.4,2.6-1.1L238.6,94.3z"/>
	<path class="st0" d="M241.5,75.1c0-1.1,0.7-1.9,1.9-1.9s1.9,0.7,1.9,1.9c0,1.1-0.7,1.9-1.9,1.9S241.5,76.2,241.5,75.1z M244.5,95.3
		h-2.5V79.9h2.5V95.3z"/>
	<path class="st0" d="M263.1,79.9l-6.4,15.4h-2.5l-6.4-15.4h2.8l4.9,12.9l5-12.9H263.1z"/>
	<path class="st0" d="M279.4,88.5h-11.6c0.3,3.1,2.2,4.9,5,4.9c2.3,0,3.8-0.8,4.3-2.3l2.1,1.1c-1.2,2.1-3.1,3.4-6.4,3.4
		c-4.7,0-7.5-3-7.5-8c0-5,2.6-8,7.3-8c4.5,0,6.9,3.2,6.9,7.2C279.5,87.5,279.4,88.1,279.4,88.5z M267.8,86.4h9.3
		c-0.3-2.8-1.9-4.6-4.5-4.6C269.8,81.8,268.1,83.5,267.8,86.4z"/>
	<path class="st0" d="M302.5,86.9h-4.9v8.5h-2.5V75h7.7c4.1,0,6.9,2.3,6.9,6c0,2.9-1.7,4.9-4.5,5.7l5.7,8.7H308L302.5,86.9z
		 M297.6,84.6h5.2c2.9,0,4.3-1.2,4.3-3.6s-1.4-3.6-4.3-3.6h-5.2V84.6z"/>
	<path class="st0" d="M328.6,87.6c0,5-2.8,8-7.5,8c-4.7,0-7.5-3-7.5-8c0-5,2.8-8,7.5-8C325.8,79.6,328.6,82.6,328.6,87.6z
		 M316.1,87.6c0,3.7,1.9,5.9,5,5.9c3.1,0,5-2.2,5-5.9c0-3.7-1.9-5.9-5-5.9C318,81.7,316.1,84,316.1,87.6z"/>
	<path class="st0" d="M348,87.6c0,5-2.7,8-7,8c-2.4,0-4.4-1.2-5.3-3l-0.2,2.7h-2.2V72.8h2.5v9.5c1-1.6,2.8-2.7,5.1-2.7
		C345.2,79.6,348,82.6,348,87.6z M345.5,87.6c0-3.6-1.8-5.9-4.8-5.9c-2.9,0-4.8,2.2-4.8,5.7v0.4c0,3.5,1.9,5.7,4.8,5.7
		C343.7,93.5,345.5,91.2,345.5,87.6z"/>
	<path class="st0" d="M366.7,87.6c0,5-2.8,8-7.5,8c-4.7,0-7.5-3-7.5-8c0-5,2.8-8,7.5-8C363.9,79.6,366.7,82.6,366.7,87.6z
		 M354.3,87.6c0,3.7,1.9,5.9,5,5.9c3.1,0,5-2.2,5-5.9c0-3.7-1.9-5.9-5-5.9C356.1,81.7,354.3,84,354.3,87.6z"/>
	<path class="st0" d="M380.6,94.3c-1,0.9-2.3,1.4-4,1.4c-2.3,0-4.3-1.1-4.3-4.1V82h-3.1v-2.1h3.1v-3.7l2.5-0.7v4.4h5.7V82h-5.7v9
		c0,1.5,1,2.3,2.3,2.3c1.1,0,1.9-0.4,2.6-1.1L380.6,94.3z"/>
	<path class="st0" d="M383.5,75.1c0-1.1,0.7-1.9,1.9-1.9s1.9,0.7,1.9,1.9c0,1.1-0.7,1.9-1.9,1.9S383.5,76.2,383.5,75.1z M386.6,95.3
		h-2.5V79.9h2.5V95.3z"/>
	<path class="st0" d="M405.2,83.7l-2.3,1.1c-0.6-2-2-3.1-4.1-3.1c-3.1,0-4.9,2.2-4.9,5.9c0,3.7,1.9,5.9,4.9,5.9
		c2.4,0,3.9-1.1,4.3-3.2l2.3,0.8c-1,2.8-3.3,4.5-6.5,4.5c-4.7,0-7.5-3-7.5-8c0-5,2.8-8,7.5-8C402,79.6,404,81.2,405.2,83.7z"/>
	<path class="st0" d="M408.3,92.2l2-1.4c0.7,1.9,2.7,2.7,4.9,2.7c2.5,0,3.7-1,3.7-2.3c0-1.1-1-1.8-4-2.4c-4.4-0.8-6-2-6-4.6
		c0-2.5,2.3-4.6,6.1-4.6c3.3,0,5.2,1.2,6.1,3.7l-2.1,1.2c-0.7-2-2.1-2.8-4-2.8c-2.1,0-3.6,1.1-3.6,2.3c0,1.3,1,2,4.2,2.5
		c4.3,0.7,5.9,2,5.9,4.5c0,2.7-2.5,4.6-6.4,4.6C412,95.6,409.4,94.5,408.3,92.2z"/>
</g>
<g>
	<path class="st0" d="M157.8,58.4h-10.1l-12.2-42h9.5l8.1,35.1l8.4-35.1h8.4l8.5,35.1l8.1-35.1h9l-12.2,42h-9.9l-5.9-22.9l-2-9.9
		h-0.1l-2,9.9L157.8,58.4z"/>
	<path class="st0" d="M200.3,17.4c0-3.1,1.8-4.7,5.4-4.7s5.4,1.6,5.4,4.7c0,3.1-1.8,4.6-5.4,4.6S200.3,20.5,200.3,17.4z M210.1,58.4
		h-8.7V26.6h8.7V58.4z"/>
	<path class="st0" d="M227.8,48.3c0,3,0.8,4.1,3.1,4.1c1.5,0,2.4-0.2,3.8-0.7l-0.8,6c-1.4,0.8-3.8,1.3-5.9,1.3
		c-6.2,0-8.9-2.9-8.9-9.5V12.7h8.7V48.3z"/>
	<path class="st0" d="M270.3,12.7v45.7h-7.8l-0.4-5.7c-1.8,3.8-5.6,6.4-10.5,6.4c-8.5,0-13.6-6.1-13.6-16.5
		c0-10.4,5.2-16.6,13.6-16.6c4.6,0,8.1,2.3,9.9,5.8V12.7H270.3z M261.6,44.4v-3.7c-0.4-5.1-3.1-8-7.3-8c-4.6,0-7.4,3.4-7.4,9.9
		s2.8,9.9,7.4,9.9C258.4,52.4,261.1,49.6,261.6,44.4z"/>
	<path class="st0" d="M290.1,23.4v3.2h10.1v6.5h-9.7v25.3h-8.7V33.1h-5.5v-6.5h5.5v-3.8c0-7.2,4.9-10.8,12-10.8
		c2.9,0,5.3,0.6,6.6,1.7l-1.2,5.8c-1-0.6-2-1-3.6-1C292.1,18.5,290.1,19.9,290.1,23.4z M304.3,17.4c0-3.1,1.8-4.7,5.4-4.7
		s5.4,1.6,5.4,4.7c0,3.1-1.8,4.6-5.4,4.6S304.3,20.5,304.3,17.4z M305.3,26.6h8.7v31.8h-8.7V26.6z"/>
	<path class="st0" d="M344.7,26.7l-1.1,7.6c-0.9-0.6-2.4-1-4-1c-3.8,0-7.6,2.8-7.6,8.6v16.5h-8.7V26.6h7.6l0.6,6.2
		c1.7-4.4,4.9-6.9,9.9-6.9C342.6,26,343.9,26.2,344.7,26.7z"/>
	<path class="st0" d="M378.8,45.8h-22.5c0.9,4.6,3.7,6.7,8,6.7c3.7,0,6.1-1.4,7-3.9l7.1,2.6c-2,5.1-6.9,7.8-14.1,7.8
		c-10.6,0-16.5-6.1-16.5-16.5s5.8-16.5,16-16.5c9.9,0,15.3,6,15.3,16.4C379.1,43.3,378.9,45,378.8,45.8z M356.2,39.7h14.8
		c-0.7-4.8-3.4-7.3-7.4-7.3C359.5,32.4,356.9,34.9,356.2,39.7z"/>
</g>
<path class="st0" d="M27,10v90h90V10H27z M72.5,73.7c-1.4,0-2.5-2.2-2.5-4.8c0-2.7,1.1-4.8,2.5-4.8c1.4,0,2.5,2.2,2.5,4.8
	C75,71.6,73.9,73.7,72.5,73.7z M99.7,68.9c-1.3,6.2-6,9.8-8.7,11.9c-5.7,4.4-11.8,5.6-15,5.9c7.5-4.8,11.6-12.9,10.5-20.8
	c-1.2-9.1-9.4-18.4-17.5-17c-7.1,1.3-12.1,10.6-11,18.8c1.3,9.3,10.1,13.6,10.9,14c-0.8,0.1-12.7,1.3-20.5-8.2
	c-7-8.6-4.8-18.7-4.5-19.9c0.4,1,1.6,3.9,4.7,5.5c0.5,0.2,1.2,0.6,2.1,0.8c-2.3-8.3,0.8-16.2,1.1-17C55.5,34.3,62.2,30,65.4,28
	c8.1-5.1,16.1-5.7,20.1-5.7c-1.1,1.3-3,4-3.9,7.8c-0.2,1.1-0.9,4.4,0,8.6c0.8,3.6,2.9,8.3,5.9,10.8c0.2-0.9,0.6-1.8,1.1-2.8
	c1.9-3.3,4.8-5,6.3-5.7c-0.5,1.5-1.1,3.7-0.8,6.3c0.4,3.8,2.4,5.3,4,8.9C98.5,57.2,101,62.9,99.7,68.9z"/>
</svg>
