<svg id="Layer_1" data-name="Layer 1" xmlns="http://www.w3.org/2000/svg" viewBox="0 0 478.06 100.12"><text transform="translate(107.39 89.72)" style="font-size:30.8543701171875px;fill:#f5f5f5;font-family:WorkSans-Regular, Work Sans;letter-spacing:-0.0009969971395677305em">/ <tspan x="23.97" y="0" style="letter-spacing:-0.005997808188828093em">I</tspan><tspan x="32.92" y="0" style="letter-spacing:-0.007991802467963554em">n</tspan><tspan x="51.77" y="0">tuitive </tspan><tspan x="157.39" y="0" style="letter-spacing:-0.01800924991790599em">R</tspan><tspan x="177.35" y="0" style="letter-spacing:-0.0009811717881460205em">ob</tspan><tspan x="215.48" y="0" style="letter-spacing:-0.009969971395677305em">o</tspan><tspan x="233.93" y="0" style="letter-spacing:-0.0010128224909894405em">tics</tspan></text><text transform="translate(107.23 52.81)" style="font-size:63.629188537597656px;fill:#f5f5f5;font-family:WorkSans-SemiBold, Work Sans;font-weight:600;letter-spacing:-0.001005275176693539em">Wildfi<tspan x="184.4" y="0" style="letter-spacing:-0.010988962236833192em">r</tspan><tspan x="210.55" y="0" style="letter-spacing:-0.0009976013203829015em">e ICS</tspan></text><path d="M52,82v90h90V82Zm45.47,63.71c-1.39,0-2.52-2.15-2.52-4.81s1.13-4.81,2.52-4.81,2.51,2.15,2.51,4.81S98.86,145.71,97.47,145.71Zm27.23-4.8c-1.33,6.16-6,9.81-8.71,11.87a29.5,29.5,0,0,1-15,5.91c7.54-4.77,11.63-12.94,10.54-20.83-1.25-9.05-9.43-18.43-17.5-17-7.11,1.28-12.13,10.58-11,18.77,1.31,9.3,10.09,13.61,10.85,14-.82.1-12.72,1.27-20.45-8.18-7-8.55-4.77-18.69-4.49-19.86a9.93,9.93,0,0,0,4.7,5.49,9.77,9.77,0,0,0,2.1.8c-2.29-8.33.81-16.15,1.15-17C80.46,106.31,87.2,102,90.42,100a38.63,38.63,0,0,1,20.08-5.72,19.12,19.12,0,0,0-3.92,7.84,19.5,19.5,0,0,0,0,8.61c.81,3.56,2.94,8.27,5.9,10.84a11.58,11.58,0,0,1,1.14-2.78A14.23,14.23,0,0,1,119.9,113a14,14,0,0,0-.79,6.27c.44,3.81,2.39,5.3,4,8.93C123.54,129.2,126,134.91,124.7,140.91Z" transform="translate(-52 -77.62)" style="fill:#f5f5f5"/></svg>